<svg xmlns="http://www.w3.org/2000/svg" viewBox="0 0 2340 1922" width="2340" height="1922" fill="none">
<g transform="translate(0.000000,1922.000000) scale(0.100000,-0.100000)"
fill="#1b2c7a" stroke="none">
<path d="M10758 18563 c-35 -5 -60 -33 -30 -33 26 0 72 20 72 32 0 4 -3 7 -7
7 -5 -1 -20 -4 -35 -6z"/>
<path d="M12670 18517 c0 -2 30 -28 68 -57 43 -35 59 -45 45 -27 -29 37 -113
100 -113 84z"/>
<path d="M10629 18485 c-27 -14 -44 -43 -34 -53 3 -3 22 11 43 31 38 39 35 46
-9 22z"/>
<path d="M13327 17993 c-16 -16 -4 -28 28 -30 38 -2 46 11 16 27 -23 12 -35
13 -44 3z"/>
<path d="M9059 17461 c-27 -22 -21 -38 9 -22 21 11 37 41 23 41 -5 0 -19 -9
-32 -19z"/>
<path d="M14589 17192 c52 -61 71 -79 71 -67 0 15 -36 57 -78 92 l-47 38 54
-63z"/>
<path d="M14870 16838 c0 -8 11 -25 25 -38 18 -17 25 -20 25 -8 0 8 -11 25
-25 38 -18 17 -25 20 -25 8z"/>
<path d="M14960 16722 c0 -4 11 -23 25 -42 30 -41 33 -30 4 16 -21 34 -29 41
-29 26z"/>
<path d="M10200 16088 c0 -44 14 -88 27 -88 11 0 14 7 9 23 -3 12 -6 34 -6 50
0 17 -5 27 -15 27 -8 0 -15 -6 -15 -12z"/>
<path d="M15300 16012 c0 -23 26 -59 35 -50 4 4 5 18 1 31 -7 30 -36 45 -36
19z"/>
<path d="M13107 15793 c-10 -10 -8 -53 2 -53 10 0 21 24 21 46 0 15 -12 19
-23 7z"/>
<path d="M10430 15260 c0 -73 3 -90 15 -90 12 0 15 17 15 90 0 73 -3 90 -15
90 -12 0 -15 -17 -15 -90z"/>
<path d="M6990 15256 c-107 -35 -244 -79 -305 -96 -167 -49 -366 -112 -400
-126 -16 -7 -59 -20 -95 -29 -36 -9 -76 -22 -90 -27 -14 -6 -56 -19 -95 -29
-38 -9 -108 -32 -155 -50 -47 -17 -114 -40 -150 -50 -36 -10 -101 -30 -145
-44 -44 -15 -123 -39 -175 -55 -52 -16 -117 -36 -145 -45 -27 -9 -79 -25 -115
-35 -36 -11 -90 -28 -120 -39 -30 -11 -84 -26 -120 -35 -144 -35 -237 -68
-296 -107 -133 -86 -222 -213 -263 -377 -21 -79 -21 -102 -21 -1290 0 -1113 1
-1211 17 -1223 13 -11 98 -14 459 -14 406 0 445 1 460 17 16 16 18 70 25 630
4 337 8 820 8 1073 1 253 5 465 9 472 7 12 107 49 192 72 25 7 72 21 105 31
33 11 89 26 125 35 36 9 81 22 100 29 48 19 131 44 220 67 41 10 91 26 110 34
19 8 71 23 115 34 44 10 94 24 110 30 55 19 229 70 310 90 176 44 271 73 288
89 27 24 37 56 48 147 15 140 38 253 74 380 8 28 22 79 30 115 15 61 33 113
103 290 30 77 28 100 -7 100 -9 -1 -104 -29 -211 -64z"/>
<path d="M16136 15301 c-4 -6 -1 -23 7 -38 8 -15 19 -50 26 -77 7 -27 20 -65
30 -85 10 -20 26 -70 36 -111 10 -41 22 -83 27 -92 4 -10 13 -39 18 -65 5 -27
19 -82 31 -123 11 -41 25 -105 29 -142 11 -79 46 -228 62 -263 12 -28 7 -26
283 -100 33 -9 103 -29 155 -45 52 -16 154 -45 225 -66 72 -20 146 -42 165
-50 19 -8 58 -18 85 -24 46 -9 102 -27 458 -139 70 -23 134 -41 143 -41 25 0
164 -52 171 -63 4 -6 6 -495 4 -1087 -2 -917 -1 -1078 11 -1088 21 -17 903
-18 924 -1 12 10 14 182 12 1303 l-3 1291 -28 50 c-72 129 -149 211 -246 259
-39 20 -76 36 -83 36 -7 0 -56 13 -108 30 -283 88 -499 155 -615 191 -71 21
-143 44 -160 50 -34 13 -82 28 -205 65 -47 14 -101 32 -120 40 -19 7 -64 21
-100 30 -36 9 -72 21 -81 25 -9 5 -56 19 -105 33 -49 14 -118 34 -154 46 -36
12 -101 32 -145 45 -44 14 -118 36 -165 51 -47 14 -110 32 -140 40 -30 8 -77
23 -105 34 -88 33 -247 81 -291 87 -25 3 -44 1 -48 -6z"/>
<path d="M10300 15025 c0 -16 6 -25 15 -25 9 0 15 9 15 25 0 16 -6 25 -15 25
-9 0 -15 -9 -15 -25z"/>
<path d="M10430 14670 c0 -29 4 -40 15 -40 11 0 15 11 15 40 0 29 -4 40 -15
40 -11 0 -15 -11 -15 -40z"/>
<path d="M7666 14661 c-30 -20 -66 -68 -66 -88 0 -21 16 -15 28 11 6 13 25 40
42 60 37 41 36 43 -4 17z"/>
<path d="M15702 14629 c12 -16 24 -25 26 -19 4 12 -26 50 -40 50 -5 0 2 -14
14 -31z"/>
<path d="M15565 13839 c-22 -17 -42 -35 -44 -41 -3 -10 17 3 73 47 37 29 11
23 -29 -6z"/>
<path d="M15980 13793 c0 -11 69 -57 76 -50 7 7 -48 57 -63 57 -7 0 -13 -3
-13 -7z"/>
<path d="M14864 13739 c-46 -32 -104 -94 -104 -111 0 -6 15 5 34 25 19 20 55
55 81 77 54 46 48 51 -11 9z"/>
<path d="M7965 13667 c32 -43 60 -76 62 -73 5 5 -79 117 -103 137 -10 8 8 -21
41 -64z"/>
<path d="M7710 13714 c0 -4 10 -17 23 -29 12 -12 44 -50 72 -84 49 -61 95
-101 95 -81 0 5 -22 32 -50 60 -27 28 -50 54 -50 58 0 4 -20 25 -45 45 -25 21
-45 35 -45 31z"/>
<path d="M15595 13672 c-31 -26 -68 -82 -55 -82 7 0 25 14 41 32 52 55 61 91
14 50z"/>
<path d="M15220 13607 c0 -28 17 -47 42 -47 23 0 23 5 -4 40 -26 36 -38 38
-38 7z"/>
<path d="M8080 13580 c-12 -7 -12 -12 -2 -22 10 -10 15 -10 22 2 19 29 9 39
-20 20z"/>
<path d="M15165 13320 c-12 -4 -27 -15 -34 -24 -12 -14 -11 -16 5 -16 23 0 70
35 58 42 -5 3 -18 2 -29 -2z"/>
<path d="M14140 13155 c0 -8 9 -15 20 -15 11 0 20 7 20 15 0 8 -9 15 -20 15
-11 0 -20 -7 -20 -15z"/>
<path d="M13930 13125 c0 -9 9 -15 25 -15 16 0 25 6 25 15 0 9 -9 15 -25 15
-16 0 -25 -6 -25 -15z"/>
<path d="M10910 13005 c0 -10 11 -15 35 -15 24 0 35 5 35 15 0 10 -11 15 -35
15 -24 0 -35 -5 -35 -15z"/>
<path d="M14168 12983 c-16 -2 -28 -11 -28 -19 0 -17 11 -18 45 -2 23 10 36
30 18 27 -5 -1 -20 -4 -35 -6z"/>
<path d="M7840 12283 c0 -5 12 -20 26 -34 23 -21 26 -22 23 -5 -4 19 -49 56
-49 39z"/>
<path d="M661 11077 c-15 -19 -7 -41 118 -337 19 -47 48 -110 64 -140 15 -30
57 -128 92 -217 36 -89 96 -232 135 -317 38 -86 70 -159 70 -164 0 -8 76 -184
127 -292 17 -36 55 -123 83 -195 29 -71 65 -157 81 -190 27 -59 56 -129 104
-250 29 -73 112 -268 166 -390 23 -49 59 -135 81 -190 22 -55 50 -122 63 -150
13 -27 29 -68 35 -90 7 -22 22 -50 33 -62 l20 -23 394 0 c223 0 402 4 412 9
17 9 29 33 91 181 18 41 49 113 70 160 21 47 52 121 70 165 18 44 52 123 75
175 24 52 55 124 70 160 15 36 40 94 55 130 16 36 46 103 66 150 20 47 50 113
65 148 16 34 29 65 29 68 0 6 39 100 85 204 13 30 41 93 61 140 20 47 55 126
76 175 22 50 48 113 58 140 9 28 40 100 68 160 27 61 62 139 77 175 15 36 37
88 50 115 13 28 42 95 66 150 23 55 63 147 89 205 54 121 76 188 63 201 -5 5
-187 8 -413 7 -346 -3 -404 -5 -410 -18 -32 -64 -130 -291 -136 -315 -4 -16
-10 -35 -15 -40 -4 -6 -35 -73 -69 -150 -61 -137 -78 -178 -125 -300 -42 -108
-77 -190 -85 -200 -11 -13 -90 -196 -90 -207 0 -4 -40 -97 -89 -205 -48 -109
-91 -207 -94 -218 -6 -22 -49 -124 -91 -218 -15 -34 -32 -57 -39 -55 -17 6
-95 176 -147 323 -10 28 -50 121 -89 207 -39 86 -71 163 -71 170 0 8 -23 66
-51 128 -28 63 -58 132 -65 153 -8 21 -26 60 -39 87 -14 27 -25 55 -25 62 0 7
-23 65 -51 128 -28 63 -53 124 -56 135 -3 11 -24 63 -48 115 -24 52 -69 160
-100 240 -31 80 -60 152 -64 160 -12 22 -882 28 -900 7z"/>
<path d="M4232 11078 c-18 -18 -17 -2971 1 -2986 8 -6 411 -11 1173 -13 973
-3 1164 -2 1177 10 15 12 17 47 17 320 0 225 -3 310 -12 319 -9 9 -191 12
-759 12 -682 0 -748 1 -760 17 -11 12 -15 68 -17 240 -3 191 -1 228 13 249
l15 24 634 0 c495 0 636 3 643 13 15 18 15 628 0 645 -9 11 -122 13 -636 12
-344 -1 -631 -1 -638 -1 -6 1 -15 11 -19 24 -12 32 -4 420 8 435 8 9 167 12
732 12 535 0 725 3 734 12 14 14 5 636 -11 656 -14 17 -2277 18 -2295 0z"/>
<path d="M7062 11078 c-15 -15 -17 -2964 -2 -2988 8 -13 50 -15 262 -18 139
-1 323 1 408 5 l155 8 2 385 c0 212 2 560 2 773 1 351 3 388 18 394 20 8 19 9
207 -238 44 -57 106 -135 138 -174 33 -38 95 -113 138 -165 44 -52 123 -147
177 -211 124 -147 256 -304 358 -428 44 -53 103 -124 130 -158 28 -33 70 -85
93 -116 26 -32 57 -60 74 -66 41 -15 642 -15 669 -1 19 11 19 38 19 1498 0
1144 -3 1491 -12 1500 -9 9 -114 12 -409 12 -339 0 -398 -2 -409 -15 -10 -11
-11 -184 -9 -782 3 -582 1 -767 -8 -770 -6 -2 -46 38 -88 89 -42 51 -101 122
-131 158 -30 36 -83 99 -117 141 -107 132 -309 378 -371 451 -32 38 -93 113
-137 166 -95 117 -156 190 -252 301 -39 46 -86 102 -103 125 -17 22 -51 62
-76 89 l-44 47 -335 0 c-247 0 -338 -3 -347 -12z"/>
<path d="M10202 11073 c-4 -10 -7 -160 -7 -334 0 -253 3 -319 14 -332 12 -15
55 -17 440 -17 319 0 430 -3 439 -12 9 -9 12 -277 12 -1144 0 -1004 2 -1133
15 -1144 19 -16 790 -25 830 -10 l25 10 0 1144 c0 833 3 1147 11 1152 6 4 199
6 428 6 240 0 423 4 434 9 16 9 17 36 17 337 0 242 -3 331 -12 340 -9 9 -317
12 -1325 12 -1242 0 -1314 -1 -1321 -17z"/>
<path d="M13091 11076 c-9 -11 -11 -241 -9 -928 3 -847 4 -915 21 -945 9 -18
17 -49 17 -70 0 -68 29 -215 56 -287 33 -87 107 -235 148 -296 115 -169 329
-337 526 -413 41 -15 147 -46 235 -68 l160 -41 250 -1 c249 -1 251 -1 385 31
180 43 218 56 335 111 136 64 214 119 316 220 214 215 302 400 350 736 6 39
17 89 25 113 12 36 14 187 14 935 0 681 -3 896 -12 905 -18 18 -813 17 -825 0
-4 -7 -10 -418 -14 -913 -5 -870 -6 -903 -26 -990 -77 -329 -301 -488 -625
-444 -167 22 -305 110 -376 241 -70 129 -82 202 -91 582 -5 182 -9 599 -11
926 -1 327 -4 598 -7 603 -2 4 -190 7 -417 7 -344 0 -416 -2 -425 -14z"/>
<path d="M16482 11078 c-18 -18 -17 -2983 0 -2995 22 -13 808 -15 824 -2 12 9
14 78 14 388 0 280 3 380 12 389 9 9 71 12 216 12 l204 0 35 -37 c19 -21 42
-52 51 -68 17 -31 170 -257 252 -372 25 -35 80 -114 122 -177 43 -62 85 -119
93 -126 13 -11 107 -14 450 -14 475 -1 477 -1 438 52 -11 15 -54 77 -94 138
-40 60 -87 127 -104 149 -17 22 -80 112 -140 200 -59 88 -117 171 -127 185
-49 64 -138 207 -138 221 0 10 18 24 48 36 185 78 402 320 463 518 5 17 14 62
19 100 5 39 19 99 30 135 27 82 30 222 6 293 -9 26 -16 60 -16 74 0 15 -4 40
-9 57 -6 17 -15 58 -22 91 -31 151 -203 397 -344 491 -27 18 -69 46 -92 63
-43 31 -187 91 -263 111 -25 6 -65 18 -90 26 -25 7 -112 23 -195 34 -82 11
-172 24 -200 29 -79 15 -1428 14 -1443 -1z m1398 -687 c210 -14 294 -65 380
-228 32 -60 33 -65 34 -195 1 -128 0 -135 -28 -193 -58 -118 -150 -187 -292
-220 -94 -22 -616 -34 -639 -15 -13 11 -15 65 -15 419 0 223 4 411 8 418 4 6
25 13 47 16 74 7 379 6 505 -2z"/>
<path d="M20563 11078 c-13 -17 -87 -182 -102 -230 -7 -21 -16 -40 -21 -43 -5
-3 -16 -29 -26 -57 -15 -46 -48 -121 -139 -313 -23 -49 -83 -185 -204 -460
-62 -140 -78 -177 -147 -335 -20 -47 -56 -124 -80 -172 -24 -48 -44 -92 -44
-98 0 -10 -32 -82 -85 -195 -19 -38 -52 -115 -75 -170 -22 -55 -49 -118 -59
-140 -10 -22 -32 -71 -49 -110 -17 -38 -57 -128 -90 -200 -32 -71 -68 -152
-80 -180 -11 -27 -43 -100 -70 -161 -27 -62 -47 -117 -43 -123 5 -8 131 -13
417 -17 343 -5 412 -3 428 8 18 15 61 110 118 268 16 47 37 98 45 114 9 17 19
41 23 55 22 68 51 135 62 143 16 10 1239 10 1255 0 6 -4 30 -59 53 -122 45
-125 61 -164 114 -286 20 -45 36 -89 36 -98 0 -8 12 -29 28 -45 l27 -29 145
-3 c80 -2 270 -2 423 -1 238 2 278 4 283 17 4 9 -17 63 -45 120 -28 58 -51
110 -51 115 0 5 -39 92 -86 192 -47 101 -100 215 -116 253 -17 39 -44 102 -60
140 -31 70 -78 173 -106 230 -8 17 -23 54 -33 84 -10 30 -23 59 -28 65 -5 6
-19 36 -30 66 -12 30 -41 96 -65 145 -45 92 -63 133 -140 315 -24 58 -64 149
-89 202 -25 53 -48 107 -52 120 -4 13 -18 46 -30 73 -13 28 -51 113 -85 190
-33 77 -72 163 -85 190 -26 54 -130 291 -161 365 -10 25 -28 63 -39 85 l-20
40 -406 3 c-318 2 -409 -1 -416 -10z m423 -895 c3 -10 18 -45 34 -78 15 -33
37 -85 48 -115 75 -199 118 -307 157 -390 25 -52 45 -102 45 -110 0 -9 9 -34
21 -55 33 -65 50 -127 37 -142 -15 -19 -701 -19 -716 0 -13 16 0 83 28 137 11
22 20 44 20 49 0 5 32 81 71 168 39 87 81 187 94 223 51 144 67 185 89 229 13
25 26 58 30 74 7 30 34 36 42 10z"/>
<path d="M10700 7545 c0 -9 9 -15 25 -15 16 0 25 6 25 15 0 9 -9 15 -25 15
-16 0 -25 -6 -25 -15z"/>
<path d="M14630 7530 c-13 -8 -13 -11 1 -25 20 -21 72 -4 63 20 -7 17 -41 20
-64 5z"/>
<path d="M15802 7518 c6 -17 49 -27 71 -16 27 14 10 28 -34 28 -28 0 -39 -4
-37 -12z"/>
<path d="M8174 7425 c0 -59 6 -62 26 -15 12 28 11 34 -6 50 -19 19 -19 18 -20
-35z"/>
<path d="M19710 7430 c0 -12 29 -40 41 -40 6 0 9 7 7 16 -3 18 -48 40 -48 24z"/>
<path d="M4533 7295 c-3 -9 -3 -19 1 -22 7 -7 36 16 36 28 0 15 -30 10 -37 -6z"/>
<path d="M21380 7301 c0 -10 9 -13 65 -26 l30 -7 -27 21 c-27 21 -68 28 -68
12z"/>
<path d="M20620 7157 c0 -9 13 -17 30 -19 24 -4 30 -1 28 11 -4 21 -58 28 -58
8z"/>
<path d="M6947 7072 c-31 -32 -34 -42 -12 -42 17 0 49 44 43 60 -2 6 -16 -2
-31 -18z"/>
<path d="M10520 7075 c0 -19 28 -38 45 -31 12 4 14 10 7 23 -11 19 -52 25 -52
8z"/>
<path d="M1452 7067 c-10 -11 -9 -17 3 -27 20 -17 31 -6 19 21 -8 18 -11 19
-22 6z"/>
<path d="M19215 7040 c-9 -15 4 -30 26 -30 24 0 24 12 -1 27 -12 8 -21 9 -25
3z"/>
<path d="M21207 7043 c-9 -9 12 -33 29 -33 19 0 18 26 -2 34 -19 7 -19 7 -27
-1z"/>
<path d="M16608 6995 c-2 -19 -1 -35 4 -35 12 0 30 40 24 56 -10 25 -24 15
-28 -21z"/>
<path d="M10190 7001 c-22 -42 -3 -75 26 -47 8 9 22 16 30 16 19 0 18 14 -4
33 -24 22 -39 21 -52 -2z"/>
<path d="M7226 6968 l-28 -43 36 34 c35 34 44 51 28 51 -5 0 -21 -19 -36 -42z"/>
<path d="M15230 6927 c0 -16 7 -30 16 -34 18 -7 34 12 34 43 0 17 -6 22 -25
20 -20 -1 -25 -6 -25 -29z"/>
<path d="M19736 6941 c-10 -11 -16 -25 -14 -31 4 -14 48 17 48 36 0 20 -14 18
-34 -5z"/>
<path d="M1274 6797 c-3 -9 -16 -18 -30 -21 -26 -7 -33 -26 -10 -26 23 0 71
45 58 54 -7 4 -15 1 -18 -7z"/>
<path d="M4530 6791 c0 -18 23 -35 33 -24 7 6 -15 43 -25 43 -5 0 -8 -9 -8
-19z"/>
<path d="M16653 6725 c13 -26 37 -34 37 -12 0 16 -20 37 -36 37 -9 0 -9 -6 -1
-25z"/>
<path d="M1822 6674 c2 -9 14 -24 28 -33 l25 -16 -23 33 c-26 35 -35 40 -30
16z"/>
<path d="M4693 6022 c-11 -11 -2 -35 53 -140 36 -70 72 -134 79 -142 8 -8 23
-35 35 -60 11 -25 36 -70 55 -100 19 -30 46 -75 60 -100 49 -87 60 -106 105
-174 25 -38 68 -106 96 -152 28 -45 68 -104 90 -130 21 -26 59 -78 84 -114 52
-76 53 -78 203 -267 178 -224 375 -443 581 -647 187 -185 446 -423 516 -474
19 -14 74 -62 122 -106 138 -129 209 -190 268 -231 30 -22 82 -62 115 -90 33
-29 74 -60 90 -70 17 -10 59 -42 95 -71 36 -28 85 -64 110 -79 25 -16 68 -46
95 -67 126 -98 261 -193 436 -308 21 -14 55 -37 76 -51 21 -14 63 -42 93 -61
30 -19 81 -53 113 -74 56 -37 129 -82 227 -139 25 -14 90 -55 145 -90 55 -35
163 -100 240 -143 77 -44 160 -92 185 -106 25 -15 79 -44 120 -65 41 -21 152
-78 245 -126 175 -92 683 -345 691 -345 2 0 101 -47 220 -105 119 -58 218
-105 220 -105 2 0 79 -36 171 -81 92 -45 179 -85 193 -89 26 -9 211 -84 245
-100 11 -5 49 -21 85 -36 36 -14 101 -40 145 -58 44 -18 129 -48 188 -66 l108
-34 87 29 c103 34 243 87 392 150 60 25 150 61 260 104 25 10 119 54 210 98
222 109 629 303 634 303 9 0 446 219 681 342 325 169 552 296 710 396 44 28
109 68 145 88 108 62 369 228 489 311 42 29 123 84 181 123 58 38 154 105 214
147 60 43 121 86 135 96 38 25 132 96 197 147 31 25 69 54 84 65 263 190 687
555 990 852 253 247 571 587 655 698 22 29 62 80 88 112 124 150 392 533 487
694 14 23 40 65 59 93 18 28 63 105 98 171 36 66 80 145 98 175 19 30 50 84
69 120 56 108 97 100 -493 100 l-508 0 -39 -44 c-35 -39 -139 -176 -234 -307
-75 -105 -156 -207 -209 -265 -31 -33 -87 -100 -126 -149 -83 -105 -96 -120
-295 -340 -271 -300 -680 -706 -831 -827 -37 -29 -89 -72 -115 -96 -100 -88
-250 -209 -394 -316 -504 -375 -625 -459 -843 -586 -24 -14 -58 -37 -77 -51
-19 -15 -61 -40 -93 -58 -32 -17 -73 -42 -90 -55 -43 -32 -162 -103 -272 -162
-49 -26 -122 -69 -161 -94 -39 -26 -111 -66 -159 -90 -49 -23 -134 -71 -189
-106 -55 -35 -105 -64 -111 -64 -7 0 -29 -11 -49 -25 -20 -14 -73 -44 -119
-67 -45 -23 -89 -47 -97 -54 -8 -7 -125 -68 -260 -137 -135 -68 -288 -147
-340 -175 -52 -28 -138 -69 -190 -92 -52 -22 -124 -54 -160 -70 -137 -60 -244
-102 -403 -160 -63 -23 -99 -30 -125 -27 -46 6 -192 50 -252 76 -25 10 -81 34
-125 52 -179 72 -459 205 -685 325 -58 30 -204 107 -325 171 -253 133 -347
185 -413 229 -26 17 -132 77 -237 133 -104 57 -206 113 -225 126 -32 20 -263
159 -409 245 -138 81 -210 126 -275 169 -37 25 -78 52 -90 60 -11 8 -84 57
-161 108 -166 111 -238 162 -364 257 -51 39 -129 96 -172 128 -43 31 -111 85
-152 120 -40 34 -115 97 -167 138 -221 179 -325 274 -655 605 -329 329 -491
505 -663 719 -40 50 -105 127 -145 171 -40 44 -80 91 -90 105 -9 14 -40 59
-69 101 -29 41 -66 95 -82 120 -69 103 -103 154 -133 199 -17 27 -42 51 -54
55 -12 4 -247 6 -522 4 -397 -3 -503 -7 -514 -17z"/>
<path d="M9943 6033 c-7 -2 -13 -12 -13 -20 0 -16 168 -362 205 -423 29 -47
202 -380 469 -904 48 -93 91 -175 97 -182 6 -7 66 -122 133 -256 67 -134 144
-279 169 -324 26 -45 47 -84 47 -88 0 -4 47 -96 104 -204 57 -108 154 -296
216 -417 61 -121 117 -227 124 -235 7 -8 32 -56 54 -105 60 -131 124 -245 143
-255 12 -7 22 -3 37 13 20 22 94 145 157 262 18 33 56 101 85 150 61 105 114
223 141 315 10 36 30 97 43 135 19 53 24 81 20 116 -5 35 -1 55 15 88 41 79
38 431 -5 512 -8 16 -14 51 -14 79 0 28 -9 76 -21 108 -11 31 -27 80 -35 107
-20 68 -69 186 -109 265 -133 261 -175 340 -197 375 -14 22 -41 72 -61 111
-19 40 -66 127 -103 195 -37 68 -86 160 -109 204 -23 44 -53 99 -68 122 -14
22 -48 85 -76 138 -27 53 -55 103 -62 111 -10 12 -112 14 -693 13 -374 0 -687
-3 -693 -6z"/>
<path d="M13216 5528 c-9 -12 -16 -29 -16 -36 0 -23 27 5 33 33 5 31 2 31 -17
3z"/>
<path d="M12800 4730 c0 -14 29 -32 40 -25 17 11 11 22 -15 27 -14 3 -25 2
-25 -2z"/>
</g>
<g transform="translate(0.000000,1922.000000) scale(0.100000,-0.100000)"
fill="#f7941d" stroke="none">
<path d="M10934 18579 c-49 -5 -114 -21 -164 -40 -74 -28 -91 -40 -162 -113
-99 -100 -140 -181 -158 -312 -10 -70 -11 -368 -4 -1424 5 -734 9 -1509 9
-1721 0 -366 -1 -388 -19 -408 -11 -12 -27 -21 -37 -21 -36 0 -50 43 -64 197
-8 81 -19 175 -25 208 -5 33 -10 92 -10 130 -1 83 -25 318 -34 334 -4 6 -11
118 -16 248 -6 169 -14 255 -25 298 -12 41 -20 125 -25 270 -5 121 -13 223
-20 240 -7 17 -16 111 -21 210 -9 193 -23 336 -39 400 -5 22 -10 105 -10 185
-1 80 -5 165 -10 190 -4 25 -13 72 -19 104 -6 33 -14 138 -17 234 -5 128 -11
175 -20 179 -7 3 -46 -7 -86 -22 -40 -15 -100 -37 -133 -49 -33 -12 -81 -34
-106 -49 -25 -15 -50 -27 -56 -27 -5 0 -59 -26 -120 -57 -135 -70 -325 -196
-413 -273 -36 -31 -78 -64 -95 -73 -16 -8 -74 -56 -128 -106 -55 -50 -103 -91
-107 -91 -5 0 -30 -28 -56 -62 -26 -35 -68 -86 -93 -115 -81 -92 -148 -181
-254 -343 -102 -155 -257 -462 -257 -510 0 -12 -10 -35 -21 -52 -12 -16 -27
-48 -34 -71 -7 -23 -25 -72 -39 -110 -14 -37 -26 -76 -26 -86 0 -10 -11 -56
-25 -102 -14 -46 -34 -133 -45 -194 -11 -60 -30 -144 -42 -185 -23 -81 -30
-140 -48 -440 -7 -107 -18 -201 -23 -209 -6 -7 -35 -23 -63 -36 -66 -29 -140
-96 -154 -140 -17 -53 -19 -512 -2 -552 13 -30 90 -100 232 -209 63 -50 126
-117 163 -177 27 -42 62 -55 87 -32 11 10 20 27 20 37 0 53 61 133 134 175 32
19 109 15 168 -7 62 -23 160 -117 201 -193 40 -73 95 -206 109 -262 16 -66 24
-75 67 -75 20 -1 54 -8 76 -16 22 -8 74 -22 116 -29 41 -8 91 -21 110 -28 18
-8 59 -17 90 -21 31 -3 75 -13 99 -21 23 -8 74 -15 113 -15 51 0 78 -5 101
-19 25 -16 60 -21 185 -26 121 -6 164 -12 200 -28 42 -18 70 -20 427 -22 210
-2 387 -6 393 -9 40 -25 1547 -49 1591 -26 13 7 70 11 138 11 64 0 137 5 162
11 25 5 215 11 430 13 236 2 400 7 425 14 57 15 250 41 312 41 29 0 78 10 109
21 38 14 68 19 92 15 21 -3 65 2 111 14 41 11 83 20 93 20 10 0 52 12 94 26
42 14 128 36 191 50 63 13 123 28 133 34 12 6 26 33 35 68 43 155 126 305 206
371 77 64 150 101 196 101 46 0 112 -28 151 -64 29 -25 62 -88 62 -114 0 -11
9 -30 19 -43 l20 -24 79 80 c83 84 209 194 277 243 23 16 53 44 68 61 31 37
31 43 27 411 -2 179 -5 210 -21 242 -20 39 -69 71 -144 93 -61 18 -65 34 -65
248 0 156 -3 199 -20 259 -11 40 -20 97 -21 128 0 30 -9 87 -20 125 -10 39
-31 126 -45 195 -14 69 -30 139 -35 155 -6 17 -17 55 -24 86 -8 31 -25 81 -38
111 -13 30 -30 72 -37 93 -21 64 -175 407 -201 447 -13 20 -46 73 -74 119 -27
45 -64 98 -81 118 -17 20 -39 50 -48 66 -51 91 -134 190 -297 353 -206 207
-341 318 -483 399 -26 16 -65 42 -85 58 -53 42 -504 265 -537 265 -8 0 -38 10
-65 22 -43 18 -52 19 -64 7 -14 -15 -29 -125 -51 -384 -7 -88 -20 -198 -28
-245 -8 -47 -17 -164 -21 -260 -4 -96 -13 -215 -21 -265 -9 -49 -19 -184 -24
-300 -5 -127 -14 -236 -24 -275 -11 -45 -15 -117 -16 -235 0 -120 -5 -188 -16
-230 -25 -99 -43 -262 -44 -410 0 -97 -5 -156 -16 -190 -10 -33 -17 -103 -19
-205 -5 -213 -30 -373 -61 -405 -19 -19 -58 -20 -73 -1 -9 11 -12 443 -11
1826 l1 1812 -42 91 c-73 164 -201 258 -394 292 -76 12 -199 15 -770 14 -374
-1 -717 -6 -761 -10z"/>
<path d="M7439 13801 c-15 -5 -55 -24 -89 -42 -55 -29 -67 -41 -105 -107 -88
-150 -83 -269 20 -476 30 -61 73 -138 95 -171 22 -33 51 -80 65 -105 14 -25
62 -97 106 -160 44 -63 98 -142 119 -175 58 -90 147 -208 219 -288 35 -40 81
-93 101 -118 59 -75 252 -235 355 -295 131 -76 179 -101 330 -167 143 -63 184
-75 350 -107 33 -6 76 -16 95 -21 50 -14 5135 -5 5215 8 161 29 304 70 373
110 24 13 66 33 95 43 73 26 189 91 319 177 74 50 258 209 258 223 0 5 35 45
78 88 86 86 184 213 282 362 34 52 70 106 79 120 10 14 38 54 62 90 25 36 61
88 80 115 41 59 159 273 181 330 44 112 52 272 18 364 -25 70 -40 92 -92 134
-66 53 -101 67 -166 67 -97 0 -160 -39 -329 -206 -78 -78 -164 -154 -190 -169
-27 -16 -80 -52 -120 -82 -40 -29 -105 -67 -145 -84 -172 -72 -338 -131 -478
-170 -36 -9 -109 -33 -162 -52 -53 -20 -123 -39 -154 -43 -32 -4 -77 -15 -101
-26 -29 -13 -84 -22 -161 -28 -80 -6 -132 -16 -163 -29 -35 -16 -77 -22 -175
-27 -71 -3 -151 -12 -179 -19 -27 -7 -120 -15 -206 -19 -86 -3 -180 -11 -210
-18 -81 -19 -2724 -19 -2894 1 -66 7 -210 24 -319 37 -110 13 -226 24 -258 24
-32 0 -96 11 -144 25 -47 14 -107 25 -133 25 -26 0 -71 7 -101 15 -30 9 -90
22 -133 30 -81 15 -288 76 -345 101 -18 8 -48 14 -68 14 -19 0 -56 11 -82 24
-27 13 -73 31 -103 40 -167 46 -406 163 -542 264 -51 38 -121 101 -157 142
-109 124 -168 178 -223 204 -59 28 -129 39 -168 27z"/>
<path d="M7680 7541 c-93 -27 -157 -57 -169 -80 -6 -11 -29 -41 -51 -66 -49
-56 -64 -109 -57 -198 11 -127 61 -176 238 -235 68 -22 151 -46 183 -53 58
-13 107 -43 127 -80 12 -23 -11 -73 -42 -89 -11 -6 -62 -12 -112 -12 -88 0
-97 2 -182 41 -105 49 -121 47 -186 -27 -45 -52 -56 -81 -39 -111 25 -47 220
-116 360 -127 89 -7 231 15 296 47 52 25 140 101 158 138 27 53 39 144 26 191
-37 136 -125 209 -300 245 -180 37 -250 74 -250 130 0 62 43 85 160 85 67 0
90 -5 161 -35 47 -21 90 -33 101 -29 20 6 78 123 78 159 0 33 -27 52 -126 86
-116 41 -272 50 -374 20z"/>
<path d="M17975 7522 c-89 -33 -107 -44 -161 -98 -83 -83 -118 -137 -150 -229
-25 -71 -26 -86 -21 -184 9 -163 55 -261 168 -360 119 -104 199 -132 382 -138
100 -4 127 -1 177 16 67 23 159 78 208 125 60 56 120 157 143 241 25 94 23
228 -5 282 -9 18 -16 45 -16 61 0 16 -12 46 -27 68 -47 66 -171 183 -201 189
-15 4 -47 14 -72 24 -75 31 -136 41 -233 41 -81 -1 -104 -5 -192 -38z m301
-214 c97 -30 140 -79 170 -195 28 -107 10 -198 -56 -281 -51 -64 -116 -87
-225 -80 -124 8 -202 68 -237 181 -18 61 -19 76 -9 143 6 41 20 91 30 112 30
59 92 112 147 127 70 19 102 18 180 -7z"/>
<path d="M22175 7526 c-89 -32 -105 -41 -148 -88 -61 -68 -74 -92 -92 -176
-17 -82 -10 -119 36 -181 40 -56 148 -108 334 -160 110 -31 145 -46 163 -66
31 -37 28 -68 -10 -100 -31 -26 -34 -27 -142 -23 -97 4 -119 8 -176 35 -102
47 -116 48 -148 15 -42 -46 -84 -120 -80 -144 6 -41 92 -84 213 -108 33 -6 74
-15 91 -21 70 -21 247 -2 346 37 65 26 142 91 178 149 29 47 42 137 28 198 -9
42 -21 63 -69 113 -72 74 -93 85 -239 119 -63 15 -127 34 -142 41 -15 8 -35
14 -46 14 -23 0 -62 40 -62 64 0 32 29 73 60 86 54 23 147 15 258 -20 78 -25
105 -30 115 -21 8 6 29 41 47 77 32 62 33 68 19 92 -11 20 -31 32 -74 45 -33
10 -76 25 -95 34 -23 10 -75 17 -150 20 -111 4 -118 3 -215 -31z"/>
<path d="M705 7533 c-68 -10 -65 14 -65 -503 0 -414 2 -469 16 -481 22 -18
535 -26 658 -10 102 14 130 26 192 83 71 66 88 101 88 184 0 94 -30 156 -97
199 -25 17 -48 35 -51 41 -2 6 18 42 45 79 47 66 49 70 49 137 0 73 -10 100
-62 172 -36 50 -44 55 -127 73 -95 21 -554 39 -646 26z m434 -203 c78 -11 113
-34 125 -83 11 -44 -1 -62 -59 -88 -54 -25 -245 -27 -269 -3 -20 19 -23 153
-4 172 14 14 116 15 207 2z m95 -394 c50 -21 78 -62 74 -109 -6 -73 -64 -96
-245 -97 -140 0 -143 2 -143 110 0 109 1 110 156 110 83 0 136 -5 158 -14z"/>
<path d="M1823 7532 c-23 -2 -47 -9 -53 -17 -8 -10 -10 -108 -8 -347 l3 -333
30 -70 c22 -53 46 -86 95 -135 36 -36 81 -72 100 -79 19 -7 52 -20 72 -28 26
-11 73 -16 150 -17 121 -1 183 13 264 60 50 29 164 146 164 169 0 8 10 35 22
58 21 40 22 56 26 375 3 250 1 337 -8 348 -10 11 -39 14 -129 14 -64 0 -121
-4 -127 -8 -8 -5 -14 -111 -19 -332 -5 -247 -10 -331 -21 -352 -8 -15 -35 -43
-60 -63 -41 -31 -54 -35 -104 -35 -52 0 -62 4 -107 39 -34 28 -53 52 -61 78
-7 24 -12 154 -14 346 -1 199 -6 311 -13 316 -11 10 -138 18 -202 13z"/>
<path d="M2933 7533 c-17 -2 -37 -10 -43 -18 -17 -20 -17 -939 0 -960 16 -19
229 -22 248 -3 14 14 17 934 4 956 -18 27 -107 38 -209 25z"/>
<path d="M3425 7532 c-22 -2 -46 -8 -53 -14 -20 -17 -13 -937 7 -961 12 -15
51 -17 370 -17 264 0 360 3 369 12 18 18 16 158 -4 186 -15 22 -20 22 -224 22
-176 0 -211 2 -224 16 -14 13 -16 61 -16 373 0 275 -3 361 -12 368 -14 11
-149 21 -213 15z"/>
<path d="M4295 7534 c-11 -4 -28 -13 -37 -22 -17 -14 -18 -50 -18 -482 0 -402
2 -469 15 -480 18 -15 547 -16 636 -1 137 23 263 122 335 262 l39 74 0 140 0
140 -36 70 c-50 95 -110 168 -173 210 -69 46 -121 63 -225 75 -99 12 -506 22
-536 14z m482 -228 c79 -21 133 -56 172 -110 35 -50 36 -51 36 -156 0 -94 -3
-111 -26 -155 -45 -88 -125 -122 -300 -127 -78 -2 -111 1 -123 11 -14 12 -16
44 -16 264 0 303 -7 287 119 287 47 0 109 -6 138 -14z"/>
<path d="M5450 7525 c-23 -27 -27 -928 -4 -962 l14 -23 373 0 c277 0 376 3
385 12 13 13 17 156 4 174 -19 30 -55 34 -275 34 -259 0 -250 -3 -250 91 0 95
-3 95 231 91 181 -3 199 -2 214 15 20 24 33 150 17 169 -9 11 -53 14 -216 14
-203 0 -204 0 -228 25 -14 13 -25 34 -25 47 1 40 18 101 32 109 7 5 117 9 244
9 165 0 233 3 242 12 17 17 16 162 -1 176 -8 7 -145 13 -377 18 -345 7 -366 6
-380 -11z"/>
<path d="M6428 7534 c-14 -3 -31 -11 -37 -18 -16 -19 -17 -942 -1 -961 16 -19
239 -22 258 -3 8 8 12 47 12 109 0 80 3 101 19 120 18 22 21 23 82 11 47 -8
69 -18 84 -36 42 -52 83 -113 103 -152 32 -64 35 -65 178 -62 120 3 129 4 131
23 3 22 -36 88 -109 186 -27 35 -48 71 -48 82 0 10 30 46 66 80 88 82 100 108
108 239 8 122 0 152 -71 243 -82 106 -185 134 -513 140 -129 2 -247 1 -262 -1z
m398 -215 c120 -16 156 -43 175 -128 7 -31 5 -51 -9 -87 -27 -73 -49 -85 -183
-91 -151 -7 -148 -10 -150 155 -2 128 3 147 44 155 38 7 44 7 123 -4z"/>
<path d="M9107 7523 c-8 -10 -24 -47 -36 -83 -11 -36 -34 -92 -50 -125 -16
-33 -40 -87 -54 -120 -14 -33 -43 -101 -66 -152 -23 -50 -41 -94 -41 -97 0 -4
-18 -46 -41 -94 -83 -176 -97 -208 -109 -245 -19 -60 -13 -64 103 -72 136 -9
154 -1 182 77 11 31 30 70 43 87 l23 31 189 0 c220 0 213 2 250 -99 33 -90 37
-92 176 -89 l119 3 -1 38 c-1 39 -25 100 -99 252 -91 189 -115 242 -115 256 0
8 -36 93 -80 189 -44 96 -80 184 -80 196 0 11 -10 30 -23 42 -21 20 -34 22
-149 22 -106 0 -127 -3 -141 -17z m183 -335 c11 -18 20 -40 20 -48 0 -8 14
-44 30 -78 54 -115 43 -132 -85 -132 -146 0 -146 0 -34 248 23 50 42 53 69 10z"/>
<path d="M9958 7533 c-20 -2 -41 -10 -48 -18 -8 -9 -10 -147 -8 -479 3 -419 5
-467 20 -482 22 -22 217 -26 242 -5 14 12 16 43 16 223 0 207 6 248 34 248 15
0 85 -76 171 -185 33 -41 83 -102 110 -135 28 -32 67 -81 88 -109 l38 -51 108
0 c70 0 111 4 119 12 9 9 12 129 12 479 0 421 -2 468 -17 480 -11 9 -51 15
-124 17 -146 5 -144 8 -134 -203 8 -174 0 -274 -21 -282 -19 -7 -48 19 -86 78
-16 26 -41 53 -55 60 -13 7 -32 27 -40 43 -9 17 -42 60 -73 97 -32 37 -77 93
-99 123 -23 31 -52 62 -64 70 -24 16 -129 27 -189 19z"/>
<path d="M11130 7532 c-19 -2 -41 -8 -47 -14 -20 -16 -19 -951 1 -967 11 -9
97 -11 328 -9 299 3 316 4 370 26 32 13 76 39 98 57 22 19 49 36 59 40 26 8
73 70 117 156 l39 74 0 130 c0 120 -3 135 -28 194 -67 151 -198 266 -327 286
-25 3 -58 10 -75 15 -32 9 -476 19 -535 12z m477 -226 c65 -14 153 -69 175
-109 38 -71 47 -185 22 -263 -23 -69 -57 -110 -117 -141 -46 -23 -66 -27 -182
-31 -104 -4 -133 -2 -142 10 -18 21 -20 512 -3 533 16 19 158 20 247 1z"/>
<path d="M12720 7533 c-19 -2 -39 -8 -45 -13 -7 -5 -10 -173 -10 -478 0 -385
3 -473 14 -486 13 -15 45 -17 335 -14 l321 3 75 37 c128 64 173 107 227 216
l48 96 0 130 c0 112 -4 140 -23 191 -42 109 -79 162 -150 215 -68 51 -81 57
-207 84 -71 16 -510 30 -585 19z m480 -227 c136 -33 208 -117 217 -253 6 -84
-8 -139 -50 -195 -53 -70 -104 -89 -257 -96 -184 -7 -170 -29 -170 272 0 299
-5 286 118 286 48 -1 112 -7 142 -14z"/>
<path d="M13893 7528 c-12 -6 -27 -25 -33 -42 -16 -51 -8 -909 9 -930 12 -14
56 -16 391 -16 290 0 380 3 388 13 5 6 13 46 17 88 11 119 19 116 -266 118
-133 1 -238 6 -245 12 -28 23 -22 141 9 161 7 4 93 8 193 8 176 0 181 1 202
23 32 34 31 125 -1 155 -22 21 -32 22 -204 22 -168 0 -181 1 -198 20 -27 30
-33 124 -10 150 17 19 32 20 232 20 257 0 253 -2 253 109 0 52 -4 72 -17 82
-21 18 -685 25 -720 7z"/>
<path d="M14755 7533 c-52 -8 -55 -17 -29 -89 13 -36 33 -82 44 -102 19 -36
60 -134 82 -197 6 -16 39 -93 74 -170 35 -77 73 -167 84 -199 11 -33 31 -78
44 -100 13 -23 26 -54 30 -71 15 -61 26 -65 167 -65 136 0 151 5 164 53 3 12
23 58 45 102 65 134 140 302 140 313 0 7 18 51 41 99 22 49 53 122 69 163 15
41 39 102 53 135 53 128 54 127 -99 128 -109 0 -119 -1 -135 -22 -10 -12 -21
-39 -25 -59 -6 -33 -39 -115 -110 -270 -13 -29 -24 -57 -24 -64 0 -24 -104
-228 -116 -228 -13 0 -43 58 -74 145 -125 355 -170 464 -197 482 -22 15 -173
26 -228 16z"/>
<path d="M15930 7533 c-14 -3 -31 -10 -37 -15 -18 -15 -19 -948 -1 -966 9 -9
106 -12 374 -12 316 0 365 2 378 16 37 37 34 155 -5 187 -22 17 -39 19 -245
15 -176 -2 -224 0 -237 11 -21 16 -23 104 -4 141 l13 25 203 7 c242 8 241 7
241 104 0 96 5 94 -234 94 -190 0 -204 1 -221 20 -15 16 -17 30 -11 82 3 34
13 69 20 77 12 11 55 14 232 12 267 -2 264 -3 264 98 0 111 19 106 -374 108
-182 0 -342 -1 -356 -4z"/>
<path d="M16893 7533 c-46 -9 -45 -7 -42 -496 3 -374 7 -467 18 -481 12 -14
50 -16 361 -16 270 0 350 3 358 13 6 7 14 47 18 90 11 121 19 117 -247 117
-250 0 -256 2 -245 74 10 63 20 619 12 650 -9 38 -58 56 -143 55 -37 -1 -78
-4 -90 -6z"/>
<path d="M18968 7533 c-54 -8 -53 1 -53 -498 0 -377 3 -465 14 -478 11 -14 34
-17 130 -17 78 0 121 4 129 12 8 8 12 48 12 113 0 134 -2 132 158 134 126 1
215 17 279 49 18 10 59 47 92 84 71 80 87 134 78 263 -7 111 -27 157 -92 221
-62 61 -122 85 -275 110 -79 13 -402 18 -472 7z m454 -229 c61 -20 128 -85
128 -126 0 -38 -44 -124 -73 -143 -13 -8 -68 -19 -126 -25 -89 -10 -106 -9
-127 5 -23 15 -24 19 -24 149 0 139 3 148 45 159 30 8 124 -3 177 -19z"/>
<path d="M19992 7532 c-28 -19 -32 -87 -32 -512 0 -378 2 -438 16 -458 l15
-22 373 0 c276 0 375 3 384 12 7 7 12 40 12 80 0 68 -14 117 -34 119 -31 4
-78 5 -263 7 -234 2 -233 2 -233 87 0 93 2 94 232 97 235 4 232 2 232 102 0
37 -6 71 -13 79 -10 13 -49 16 -213 19 -199 3 -200 3 -220 28 -17 21 -19 34
-14 80 10 92 11 92 262 85 l212 -5 21 26 c31 39 29 114 -3 151 l-24 28 -349 3
c-191 1 -354 -1 -361 -6z"/>
<path d="M20930 7520 c-19 -19 -19 -33 -16 -491 3 -384 6 -473 17 -480 22 -14
233 -11 247 3 8 8 12 45 12 100 0 141 24 165 127 132 56 -18 60 -22 120 -114
90 -135 83 -131 226 -128 100 3 122 6 131 20 8 14 6 23 -12 45 -13 15 -30 41
-40 57 -9 15 -38 55 -64 88 -27 33 -48 65 -48 71 0 5 29 40 65 78 35 38 74 87
85 110 26 51 42 177 28 227 -18 68 -70 152 -119 193 -107 90 -204 109 -561
109 -164 0 -180 -2 -198 -20z m482 -210 c81 -23 125 -91 115 -177 -6 -56 -33
-94 -78 -110 -19 -7 -77 -12 -130 -12 -77 -1 -99 2 -110 15 -9 11 -13 53 -14
143 0 164 1 166 105 158 41 -4 92 -11 112 -17z"/>
<path d="M12770 6023 c-43 -7 -123 -35 -173 -60 -69 -35 -122 -87 -170 -167
l-42 -71 0 -135 0 -135 48 -90 c26 -49 62 -113 80 -142 18 -28 50 -82 71 -120
22 -37 62 -104 91 -148 28 -44 67 -106 86 -138 19 -32 41 -65 50 -73 35 -32
36 -31 199 341 34 77 86 194 117 260 31 66 63 136 71 155 8 19 23 47 33 61 10
14 25 48 34 75 16 49 35 91 114 254 46 95 47 102 25 124 -13 14 -55 16 -312
15 -163 -1 -308 -4 -322 -6z"/>
</g>
</svg>
